{
	"asset":{
		"generator":"Khronos glTF Blender I/O v5.2.39",
		"version":"2.0"
	},
	"extensionsUsed":[
		"KHR_materials_clearcoat",
		"EXT_texture_webp"
	],
	"extensionsRequired":[
		"EXT_texture_webp"
	],
	"scene":0,
	"scenes":[
		{
			"name":"Scene",
			"nodes":[
				0,
				1,
				2,
				3
			]
		}
	],
	"nodes":[
		{
			"mesh":0,
			"name":"Body"
		},
		{
			"mesh":1,
			"name":"Cork"
		},
		{
			"mesh":2,
			"name":"Gold"
		},
		{
			"mesh":3,
			"name":"Tassels",
			"translation":[
				1.784999966621399,
				-0.10000000149011612,
				0
			]
		}
	],
	"materials":[
		{
			"extensions":{
				"KHR_materials_clearcoat":{
					"clearcoatFactor":0.30000001192092896,
					"clearcoatRoughnessFactor":0.23999999463558197
				}
			},
			"name":"Bamboo",
			"normalTexture":{
				"index":0
			},
			"pbrMetallicRoughness":{
				"baseColorTexture":{
					"index":1
				},
				"metallicRoughnessTexture":{
					"index":2
				}
			}
		},
		{
			"name":"BoreInner",
			"pbrMetallicRoughness":{
				"baseColorFactor":[
					0.002932318253442645,
					0.0008046585135161877,
					0.00017512397607788444,
					1
				],
				"metallicFactor":0
			}
		},
		{
			"name":"Cork",
			"pbrMetallicRoughness":{
				"baseColorFactor":[
					0.535641610622406,
					0.29321613907814026,
					0.09626612067222595,
					1
				],
				"metallicFactor":0,
				"roughnessFactor":0.949999988079071
			}
		},
		{
			"doubleSided":true,
			"emissiveFactor":[
				0.007694549228169756,
				0.0023762669768373212,
				9.850076313690486e-05
			],
			"name":"Gold",
			"pbrMetallicRoughness":{
				"baseColorFactor":[
					0.7518950700759888,
					0.42050793766975403,
					0.05637409910559654,
					1
				],
				"metallicFactor":0.8500000238418579,
				"roughnessFactor":0.30000001192092896
			}
		},
		{
			"name":"Cord",
			"pbrMetallicRoughness":{
				"baseColorFactor":[
					0.4423229396343231,
					0.07592611759901047,
					0.4423229396343231,
					1
				],
				"metallicFactor":0,
				"roughnessFactor":0.6000000238418579
			}
		},
		{
			"doubleSided":true,
			"emissiveFactor":[
				3.215621018619113e-05,
				0.0011091719123764582,
				0.00024139756364713327
			],
			"name":"TasselGreen",
			"pbrMetallicRoughness":{
				"baseColorFactor":[
					0.00969632901251316,
					0.19751642644405365,
					0.025371277704834938,
					1
				],
				"metallicFactor":0,
				"roughnessFactor":0.699999988079071
			}
		},
		{
			"doubleSided":true,
			"emissiveFactor":[
				7.846312967386103e-05,
				0.0031193407560622943,
				0.0003605218747465555
			],
			"name":"TasselGreenLight",
			"pbrMetallicRoughness":{
				"baseColorFactor":[
					0.030256519094109535,
					0.3586539030075073,
					0.06575387716293335,
					1
				],
				"metallicFactor":0,
				"roughnessFactor":0.699999988079071
			}
		}
	],
	"meshes":[
		{
			"name":"body.001",
			"primitives":[
				{
					"attributes":{
						"POSITION":0,
						"NORMAL":1,
						"TEXCOORD_0":2
					},
					"indices":3,
					"material":0
				},
				{
					"attributes":{
						"POSITION":4,
						"NORMAL":5,
						"TEXCOORD_0":6
					},
					"indices":7,
					"material":1
				}
			]
		},
		{
			"name":"cork",
			"primitives":[
				{
					"attributes":{
						"POSITION":8,
						"NORMAL":9
					},
					"indices":10,
					"material":2
				}
			]
		},
		{
			"name":"gold",
			"primitives":[
				{
					"attributes":{
						"POSITION":11,
						"NORMAL":12
					},
					"indices":13,
					"material":3
				}
			]
		},
		{
			"name":"tassels",
			"primitives":[
				{
					"attributes":{
						"POSITION":14,
						"NORMAL":15
					},
					"indices":16,
					"material":4
				},
				{
					"attributes":{
						"POSITION":17,
						"NORMAL":18
					},
					"indices":19,
					"material":3
				},
				{
					"attributes":{
						"POSITION":20,
						"NORMAL":21
					},
					"indices":22,
					"material":5
				},
				{
					"attributes":{
						"POSITION":23,
						"NORMAL":24
					},
					"indices":25,
					"material":6
				}
			]
		}
	],
	"textures":[
		{
			"extensions":{
				"EXT_texture_webp":{
					"source":0
				}
			},
			"sampler":0
		},
		{
			"extensions":{
				"EXT_texture_webp":{
					"source":1
				}
			},
			"sampler":0
		},
		{
			"extensions":{
				"EXT_texture_webp":{
					"source":2
				}
			},
			"sampler":0
		}
	],
	"images":[
		{
			"mimeType":"image/webp",
			"name":"body_normal_4k",
			"uri":"body_normal_4k.webp"
		},
		{
			"mimeType":"image/webp",
			"name":"body_color_4k",
			"uri":"body_color_4k.webp"
		},
		{
			"mimeType":"image/webp",
			"name":"body_orm_4k",
			"uri":"body_orm_4k.webp"
		}
	],
	"accessors":[
		{
			"bufferView":0,
			"componentType":5126,
			"count":16925,
			"max":[
				1.899999976158142,
				0.09166684001684189,
				0.09166684001684189
			],
			"min":[
				-1.9000251293182373,
				-0.09166684001684189,
				-0.09166684001684189
			],
			"type":"VEC3"
		},
		{
			"bufferView":1,
			"componentType":5126,
			"count":16925,
			"type":"VEC3"
		},
		{
			"bufferView":2,
			"componentType":5126,
			"count":16925,
			"type":"VEC2"
		},
		{
			"bufferView":3,
			"componentType":5123,
			"count":98148,
			"type":"SCALAR"
		},
		{
			"bufferView":4,
			"componentType":5126,
			"count":16022,
			"max":[
				1.8999427556991577,
				0.07967638224363327,
				0.07967638224363327
			],
			"min":[
				-1.9000251293182373,
				-0.07967638224363327,
				-0.07967638224363327
			],
			"type":"VEC3"
		},
		{
			"bufferView":5,
			"componentType":5126,
			"count":16022,
			"type":"VEC3"
		},
		{
			"bufferView":6,
			"componentType":5126,
			"count":16022,
			"type":"VEC2"
		},
		{
			"bufferView":7,
			"componentType":5123,
			"count":92514,
			"type":"SCALAR"
		},
		{
			"bufferView":8,
			"componentType":5126,
			"count":113,
			"max":[
				-1.784999966621399,
				0.07717879116535187,
				0.07717879116535187
			],
			"min":[
				-1.8565000295639038,
				-0.07717879116535187,
				-0.07717879116535187
			],
			"type":"VEC3"
		},
		{
			"bufferView":9,
			"componentType":5126,
			"count":113,
			"type":"VEC3"
		},
		{
			"bufferView":10,
			"componentType":5123,
			"count":666,
			"type":"SCALAR"
		},
		{
			"bufferView":11,
			"componentType":5126,
			"count":22092,
			"max":[
				2.140000104904175,
				0.12780000269412994,
				0.12712346017360687
			],
			"min":[
				-1.9943000078201294,
				-0.12780000269412994,
				-0.12712346017360687
			],
			"type":"VEC3"
		},
		{
			"bufferView":12,
			"componentType":5126,
			"count":22092,
			"type":"VEC3"
		},
		{
			"bufferView":13,
			"componentType":5123,
			"count":128688,
			"type":"SCALAR"
		},
		{
			"bufferView":14,
			"componentType":5126,
			"count":24,
			"max":[
				0.01080000028014183,
				0,
				0.00942487083375454
			],
			"min":[
				-0.01080000028014183,
				-0.20999999344348907,
				-0.00942487083375454
			],
			"type":"VEC3"
		},
		{
			"bufferView":15,
			"componentType":5126,
			"count":24,
			"type":"VEC3"
		},
		{
			"bufferView":16,
			"componentType":5123,
			"count":72,
			"type":"SCALAR"
		},
		{
			"bufferView":17,
			"componentType":5126,
			"count":280,
			"max":[
				0.020500000566244125,
				0.02979999966919422,
				0.018888207152485847
			],
			"min":[
				-0.020500000566244125,
				-0.2280000001192093,
				-0.018888207152485847
			],
			"type":"VEC3"
		},
		{
			"bufferView":18,
			"componentType":5126,
			"count":280,
			"type":"VEC3"
		},
		{
			"bufferView":19,
			"componentType":5123,
			"count":1548,
			"type":"SCALAR"
		},
		{
			"bufferView":20,
			"componentType":5126,
			"count":840,
			"max":[
				0.03400452062487602,
				-0.14800000190734863,
				0.03336567431688309
			],
			"min":[
				-0.03323590010404587,
				-0.32290151715278625,
				-0.03284386917948723
			],
			"type":"VEC3"
		},
		{
			"bufferView":21,
			"componentType":5126,
			"count":840,
			"type":"VEC3"
		},
		{
			"bufferView":22,
			"componentType":5123,
			"count":2160,
			"type":"SCALAR"
		},
		{
			"bufferView":23,
			"componentType":5126,
			"count":448,
			"max":[
				0.03216835483908653,
				-0.14800000190734863,
				0.03479509428143501
			],
			"min":[
				-0.035626791417598724,
				-0.3208376467227936,
				-0.0326092429459095
			],
			"type":"VEC3"
		},
		{
			"bufferView":24,
			"componentType":5126,
			"count":448,
			"type":"VEC3"
		},
		{
			"bufferView":25,
			"componentType":5123,
			"count":1152,
			"type":"SCALAR"
		}
	],
	"bufferViews":[
		{
			"buffer":0,
			"byteLength":203100,
			"byteOffset":0,
			"target":34962
		},
		{
			"buffer":0,
			"byteLength":203100,
			"byteOffset":203100,
			"target":34962
		},
		{
			"buffer":0,
			"byteLength":135400,
			"byteOffset":406200,
			"target":34962
		},
		{
			"buffer":0,
			"byteLength":196296,
			"byteOffset":541600,
			"target":34963
		},
		{
			"buffer":0,
			"byteLength":192264,
			"byteOffset":737896,
			"target":34962
		},
		{
			"buffer":0,
			"byteLength":192264,
			"byteOffset":930160,
			"target":34962
		},
		{
			"buffer":0,
			"byteLength":128176,
			"byteOffset":1122424,
			"target":34962
		},
		{
			"buffer":0,
			"byteLength":185028,
			"byteOffset":1250600,
			"target":34963
		},
		{
			"buffer":0,
			"byteLength":1356,
			"byteOffset":1435628,
			"target":34962
		},
		{
			"buffer":0,
			"byteLength":1356,
			"byteOffset":1436984,
			"target":34962
		},
		{
			"buffer":0,
			"byteLength":1332,
			"byteOffset":1438340,
			"target":34963
		},
		{
			"buffer":0,
			"byteLength":265104,
			"byteOffset":1439672,
			"target":34962
		},
		{
			"buffer":0,
			"byteLength":265104,
			"byteOffset":1704776,
			"target":34962
		},
		{
			"buffer":0,
			"byteLength":257376,
			"byteOffset":1969880,
			"target":34963
		},
		{
			"buffer":0,
			"byteLength":288,
			"byteOffset":2227256,
			"target":34962
		},
		{
			"buffer":0,
			"byteLength":288,
			"byteOffset":2227544,
			"target":34962
		},
		{
			"buffer":0,
			"byteLength":144,
			"byteOffset":2227832,
			"target":34963
		},
		{
			"buffer":0,
			"byteLength":3360,
			"byteOffset":2227976,
			"target":34962
		},
		{
			"buffer":0,
			"byteLength":3360,
			"byteOffset":2231336,
			"target":34962
		},
		{
			"buffer":0,
			"byteLength":3096,
			"byteOffset":2234696,
			"target":34963
		},
		{
			"buffer":0,
			"byteLength":10080,
			"byteOffset":2237792,
			"target":34962
		},
		{
			"buffer":0,
			"byteLength":10080,
			"byteOffset":2247872,
			"target":34962
		},
		{
			"buffer":0,
			"byteLength":4320,
			"byteOffset":2257952,
			"target":34963
		},
		{
			"buffer":0,
			"byteLength":5376,
			"byteOffset":2262272,
			"target":34962
		},
		{
			"buffer":0,
			"byteLength":5376,
			"byteOffset":2267648,
			"target":34962
		},
		{
			"buffer":0,
			"byteLength":2304,
			"byteOffset":2273024,
			"target":34963
		}
	],
	"samplers":[
		{
			"magFilter":9729,
			"minFilter":9987
		}
	],
	"buffers":[
		{
			"byteLength":2275328,
			"uri":"flute.bin"
		}
	]
}
